:SAMPLES-PER-SECOND 30
:FULLY-SPECIFIED
:DEGREES
478
root  -3.20419 38.8735 -12.6079 -95.3566 -85.5181 90.3214
RightUpLeg  -16.9361 -16.8522 -18.506
RightLeg  5.96286 -4.86104 1.17427
RightFoot  -4.4242 -0.648287 10.2095
RightToes  0.00048216 0.542163 -0.142577
Spine  15.5673 1.0359 6.94987
Spine1  9.9028 5.12892 -11.5721
HEad  10.3895 34.661 -13.7442
LeftShoulder1  7.69807 -11.0797 -46.0251
LeftArm  -17.0209 23.6265 -23.5896
LeftForeArm  19.9789 -22.3384 -3.77465
LeftHand  -0.25398 0.0180481 5.50724
RightShoulder  5.52224 9.47204 36.5628
RightArm  4.15812 -27.4812 38.9967
RightForeArm  -2.81071 22.8955 5.11714
RightHand  -0.134832 -4.29861 -12.2259
LeftUpLeg  3.38165 10.1869 2.12475
LeftLeg  24.2101 4.86205 2.74408
LeftFoot  -19.8257 -0.481548 -8.06702
LeftToes  1.06246e-005 4.65856e-005 -8.18501e-006
479
root  -2.54319 39.2561 -12.1242 -109.386 -86.217 104.02
RightUpLeg  -17.0682 -18.1865 -14.981
RightLeg  11.6982 -1.86993 0.533302
RightFoot  -4.67386 -0.609163 9.87608
RightToes  0.00048216 0.542163 -0.142577
Spine  15.7628 1.10024 6.4844
Spine1  9.5705 5.04484 -11.4165
HEad  9.25742 31.6084 -13.4959
LeftShoulder1  7.69615 -11.188 -45.6642
LeftArm  -18.0882 24.9611 -23.9063
LeftForeArm  19.5648 -23.1447 -3.9309
LeftHand  -0.25398 0.0180481 5.50724
RightShoulder  5.54178 9.63487 36.193
RightArm  5.56152 -27.0331 39.2025
RightForeArm  -1.67064 23.6146 5.14494
RightHand  -0.0958875 -4.6745 -11.5807
LeftUpLeg  3.95635 11.8077 2.36582
LeftLeg  21.6963 4.69115 2.33922
LeftFoot  -17.8595 -0.268076 -6.60047
LeftToes  1.06246e-005 4.65856e-005 -8.18501e-006
480
root  -1.93872 39.613 -11.7227 -103.541 -86.8137 98.2179
RightUpLeg  -16.5679 -20.0116 -12.2169
RightLeg  17.3853 0.0940132 -0.168599
RightFoot  -5.31046 -0.523906 9.24293
RightToes  0.00048216 0.542163 -0.142577
Spine  15.5581 0.837294 5.20126
Spine1  8.88734 4.21576 -10.3691
HEad  7.96661 27.9101 -12.6626
LeftShoulder1  7.58065 -11.195 -44.9296
LeftArm  -18.0732 26.2866 -24.2916
LeftForeArm  19.0208 -23.6879 -4.06855
LeftHand  -0.25398 0.0180481 5.50724
RightShoulder  5.47046 9.55503 35.9117
RightArm  5.16432 -27.1162 39.0886
RightForeArm  -1.9836 24.8013 5.4112
RightHand  -0.17374 -4.00051 -12.6982
LeftUpLeg  4.29188 12.3277 2.60319
LeftLeg  18.7251 4.13064 1.21549
LeftFoot  -15.8186 -0.140814 -6.03627
LeftToes  1.06246e-005 4.65856e-005 -8.18501e-006
481
root  -1.39397 39.8953 -11.365 -83.1657 -87.0876 78.2368
RightUpLeg  -15.6726 -19.6177 -10.8493
RightLeg  22.9566 -0.924489 -0.664724
RightFoot  -5.66925 -0.502523 9.34913
RightToes  0.00048216 0.542163 -0.142577
Spine  14.974 0.457696 3.94427
Spine1  8.13087 3.28861 -9.37815
HEad  6.7049 23.5056 -11.3963
LeftShoulder1  7.33888 -10.9688 -44.1411
LeftArm  -17.7168 26.9947 -24.4316
LeftForeArm  18.8971 -24.0569 -4.15293
LeftHand  -0.25398 0.0180481 5.50724
RightShoulder  5.32745 9.29041 35.6659
RightArm  3.34969 -27.5013 38.8769
RightForeArm  -2.86439 25.843 5.69416
RightHand  -0.300888 -3.05225 -14.1849
LeftUpLeg  4.0876 11.6419 2.58432
LeftLeg  16.1249 4.10149 -0.247439
LeftFoot  -13.9632 -0.0442025 -5.56297
LeftToes  1.06246e-005 4.65856e-005 -8.18501e-006
482
root  -0.903664 40.0742 -11.0444 -67.2215 -86.7793 62.6378
RightUpLeg  -14.4895 -18.0229 -9.8674
RightLeg  28.1564 -2.10959 -1.45222
RightFoot  -6.28183 -0.47134 9.67249
RightToes  0.00048216 0.542163 -0.142577
Spine  14.3704 0.256032 2.95634
Spine1  7.64212 2.75806 -8.87489
HEad  5.46006 18.7077 -9.95491
LeftShoulder1  7.07754 -10.63 -43.5592
LeftArm  -17.8387 27.0323 -24.3719
LeftForeArm  19.0349 -24.5125 -4.24277
LeftHand  -0.25398 0.0180481 5.50724
RightShoulder  5.18606 9.04379 35.3641
RightArm  1.20112 -27.7356 38.6071
RightForeArm  -3.86085 26.2714 5.84394
RightHand  -0.407224 -2.36385 -15.1944
LeftUpLeg  3.73808 10.8448 2.25674
LeftLeg  14.2418 4.32721 -1.572
LeftFoot  -12.4705 0.0269278 -4.85663
LeftToes  1.06246e-005 4.65856e-005 -8.18501e-006
483
root  -0.459136 40.1843 -10.7623 -62.2028 -86.2938 57.8705
RightUpLeg  -12.9839 -15.6031 -8.96561
RightLeg  32.4147 -2.83458 -2.17638
RightFoot  -7.66911 -0.347662 9.15362
RightToes  0.00048216 0.542163 -0.142577
Spine  13.8193 0.304623 2.18934
Spine1  7.33898 2.64445 -8.67258
HEad  4.33205 14.1105 -8.37399
LeftShoulder1  6.83247 -10.299 -43.0274
LeftArm  -18.4617 26.8578 -24.324
LeftForeArm  19.2733 -25.0756 -4.35097
LeftHand  -0.25398 0.0180481 5.50724
RightShoulder  5.09145 8.89319 35.1078
RightArm  -0.279156 -27.5745 38.0509
RightForeArm  -4.45346 25.8528 5.77747
RightHand  -0.422707 -2.26039 -15.2589
LeftUpLeg  3.52761 10.034 1.70387
LeftLeg  12.6212 4.80355 -2.67004
LeftFoot  -11.2464 0.0717352 -4.56593
LeftToes  1.06246e-005 4.65856e-005 -8.18501e-006
484
root  -0.0700669 40.2622 -10.5149 -62.4113 -85.8184 58.5184
RightUpLeg  -11.3738 -13.4587 -8.03546
RightLeg  35.2241 -2.88922 -2.44124
RightFoot  -9.23091 -0.215286 8.30195
RightToes  0.00048216 0.542163 -0.142577
Spine  13.0547 0.472346 1.66264
Spine1  6.93773 2.76318 -8.69357
HEad  3.48937 10.2709 -6.75677
LeftShoulder1  6.49909 -9.84741 -42.2601
LeftArm  -19.2613 26.8135 -24.2954
LeftForeArm  20.3496 -25.5485 -4.39573
LeftHand  -0.25398 0.0180481 5.50724
RightShoulder  4.99609 8.71805 34.9191
RightArm  -1.10772 -27.1026 37.0717
RightForeArm  -3.75571 24.7439 5.48696
RightHand  -0.321326 -2.85853 -13.9985
LeftUpLeg  3.28965 9.30979 1.09107
LeftLeg  10.9375 5.25563 -3.71587
LeftFoot  -10.2721 0.108007 -4.96063
LeftToes  1.06246e-005 4.65856e-005 -8.18501e-006
485
root  0.263045 40.3023 -10.2979 -65.0509 -85.374 61.8274
RightUpLeg  -9.54406 -11.7987 -7.17763
RightLeg  36.0732 -2.43449 -2.16535
RightFoot  -10.1346 -0.153515 8.07052
RightToes  0.00048216 0.542163 -0.142577
Spine  12.0313 0.649157 1.38419
Spine1  6.38769 2.97001 -9.02523
HEad  2.94038 7.39925 -5.389
LeftShoulder1  6.01804 -9.15105 -41.2058
LeftArm  -20.1074 26.8554 -24.078
LeftForeArm  22.8427 -25.5804 -4.26975
LeftHand  -0.25398 0.0180481 5.50724
RightShoulder  4.82123 8.4097 34.5137
RightArm  -2.25215 -26.5778 35.8448
RightForeArm  -1.80459 23.4317 5.11805
RightHand  -0.213667 -3.53163 -12.2553
LeftUpLeg  2.78317 8.63689 0.466353
LeftLeg  9.55295 5.7058 -4.74065
LeftFoot  -9.69441 0.139331 -5.66625
LeftToes  1.06246e-005 4.65856e-005 -8.18501e-006
486
root  0.561136 40.3197 -10.1137 -66.8962 -84.9676 64.3206
RightUpLeg  -7.01172 -10.3407 -6.29934
RightLeg  34.2601 -2.0223 -1.73482
RightFoot  -10.605 -0.121061 7.65268
RightToes  0.00048216 0.542163 -0.142577
Spine  11.0549 0.741828 1.32943
Spine1  5.76133 3.09802 -9.43262
HEad  2.54723 5.32455 -4.41573
LeftShoulder1  5.49086 -8.39637 -39.8676
LeftArm  -20.8069 26.928 -23.4746
LeftForeArm  25.4706 -24.6496 -3.93328
LeftHand  -0.25398 0.0180481 5.50724
RightShoulder  4.55953 8.01839 33.6252
RightArm  -4.31839 -26.2321 34.4888
RightForeArm  0.049572 22.3379 4.91161
RightHand  -0.212923 -3.48198 -11.817
LeftUpLeg  2.1791 7.87287 -0.123696
LeftLeg  8.51665 6.28078 -5.53766
LeftFoot  -9.32234 0.170831 -6.51803
LeftToes  1.06246e-005 4.65856e-005 -8.18501e-006
487
root  0.837633 40.3641 -9.9693 -64.9788 -84.566 62.8592
RightUpLeg  -3.59606 -9.42329 -5.36286
RightLeg  29.4569 -2.3463 -1.65926
RightFoot  -11.6022 -0.0697135 5.54712
RightToes  0.00048216 0.542163 -0.142577
Spine  10.3608 0.653363 1.43664
Spine1  5.03335 2.99612 -9.52833
HEad  2.10133 3.67464 -3.71056
LeftShoulder1  5.0277 -7.85559 -38.0715
LeftArm  -20.8384 27.0878 -22.4212
LeftForeArm  25.7941 -22.2825 -3.41282
LeftHand  -0.25398 0.0180481 5.50724
RightShoulder  4.2637 7.63073 32.3501
RightArm  -6.56383 -26.0253 32.7248
RightForeArm  0.637285 21.4461 4.86063
RightHand  -0.311316 -2.75703 -13.0588
LeftUpLeg  1.90246 7.07315 -0.575118
LeftLeg  7.18911 6.78064 -6.05081
LeftFoot  -8.71571 0.228304 -7.6577
LeftToes  1.06246e-005 4.65856e-005 -8.18501e-006
488
root  1.1041 40.4298 -9.85592 -62.3848 -84.1053 60.5114
RightUpLeg  0.119264 -9.75583 -4.92299
RightLeg  22.7591 -3.20558 -1.69433
RightFoot  -13.3569 -0.0556899 2.07546
RightToes  0.00048216 0.542163 -0.142577
Spine  10.006 0.459816 1.59564
Spine1  4.27346 2.77226 -9.41608
HEad  1.26681 2.11901 -3.18481
LeftShoulder1  4.60491 -7.49913 -35.7358
LeftArm  -19.7962 27.1357 -20.9849
LeftForeArm  22.9897 -18.5243 -2.78749
LeftHand  -0.25398 0.0180481 5.50724
RightShoulder  3.95516 7.22937 30.8972
RightArm  -8.4922 -25.5519 30.1831
RightForeArm  0.71746 20.3037 4.86345
RightHand  -0.453375 -1.83958 -14.5413
LeftUpLeg  2.00613 6.35032 -1.0002
LeftLeg  5.50309 7.11413 -6.44907
LeftFoot  -7.94098 0.313998 -8.96449
LeftToes  1.06246e-005 4.65856e-005 -8.18501e-006
489
root  1.39078 40.4817 -9.73582 -64.276 -83.8233 62.4941
RightUpLeg  3.0396 -10.8171 -5.4642
RightLeg  16.5842 -3.66111 -0.928596
RightFoot  -14.7318 -0.123454 -0.901894
RightToes  0.00048216 0.542163 -0.142577
Spine  10.0078 0.337222 2.14611
Spine1  3.69926 2.72361 -9.55353
HEad  -0.27398 0.492382 -2.96915
LeftShoulder1  4.15913 -7.09798 -33.149
LeftArm  -18.2119 26.6865 -19.2937
LeftForeArm  19.1845 -14.1085 -2.30553
LeftHand  -0.25398 0.0180481 5.50724
RightShoulder  3.61982 6.77729 29.2275
RightArm  -10.6908 -24.4308 26.9349
RightForeArm  1.40495 18.5839 4.85187
RightHand  -0.628814 -0.705986 -15.4957
LeftUpLeg  2.08744 5.77112 -1.52895
LeftLeg  4.17551 7.57246 -6.73477
LeftFoot  -7.31605 0.390566 -9.86083
LeftToes  1.06246e-005 4.65856e-005 -8.18501e-006
490
root  1.7282 40.521 -9.58542 -69.8133 -84.0475 68.2484
RightUpLeg  4.13079 -10.5582 -6.376
RightLeg  13.0251 -4.00271 0.812007
RightFoot  -14.7198 -0.164694 -2.22908
RightToes  0.00048216 0.542163 -0.142577
Spine  10.2462 0.290006 3.6267
Spine1  3.23977 2.90155 -10.0437
HEad  -2.42609 -1.28615 -3.13933
LeftShoulder1  3.71157 -6.60153 -30.6407
LeftArm  -16.8843 25.8249 -17.5024
LeftForeArm  16.7264 -10.1267 -2.09837
LeftHand  -0.25398 0.0180481 5.50724
RightShoulder  3.27194 6.33134 27.2343
RightArm  -13.4243 -22.7905 23.3372
RightForeArm  2.04274 16.5003 4.7458
RightHand  -0.917683 0.975018 -16.7648
LeftUpLeg  1.38086 5.93693 -1.93811
LeftLeg  4.0899 7.92578 -6.62579
LeftFoot  -6.84485 0.427072 -9.82745
LeftToes  1.06246e-005 4.65856e-005 -8.18501e-006
491
root  2.11898 40.5526 -9.43906 -73.7565 -84.653 72.9559
RightUpLeg  3.22558 -10.6745 -6.76391
RightLeg  11.9346 -3.07175 2.42719
RightFoot  -13.6605 -0.141681 -2.42583
RightToes  0.00048216 0.542163 -0.142577
Spine  10.4764 0.224634 5.63737
Spine1  2.4423 3.00906 -10.413
HEad  -4.68983 -3.26069 -3.49302
LeftShoulder1  3.31908 -6.17005 -28.1778
LeftArm  -15.8285 25.1741 -15.7841
LeftForeArm  15.4179 -7.46147 -2.02352
LeftHand  -0.25398 0.0180481 5.50724
RightShoulder  2.93989 5.93356 25.0334
RightArm  -15.8666 -21.0879 19.4932
RightForeArm  1.32531 14.5195 4.52499
RightHand  -1.31797 2.83745 -18.723
LeftUpLeg  -0.943228 8.76282 -2.12062
LeftLeg  5.99625 5.95995 -5.76939
LeftFoot  -6.48407 0.436125 -9.34615
LeftToes  1.06246e-005 4.65856e-005 -8.18501e-006
492
root  2.53158 40.5528 -9.34057 -70.9398 -85.2939 71.3926
RightUpLeg  1.23275 -10.804 -6.39746
RightLeg  11.8824 -2.77117 3.47026
RightFoot  -12.6009 -0.112857 -2.52441
RightToes  0.00048216 0.542163 -0.142577
Spine  10.6622 0.126087 7.19703
Spine1  1.1106 2.79437 -10.0156
HEad  -6.74005 -5.30258 -3.72932
LeftShoulder1  2.97168 -5.84013 -25.5851
LeftArm  -15.2553 25.0387 -14.217
LeftForeArm  14.1997 -6.33152 -1.9728
LeftHand  -0.25398 0.0180481 5.50724
RightShoulder  2.61245 5.49322 22.8046
RightArm  -17.3408 -19.4969 15.3408
RightForeArm  -0.676342 12.8439 4.30228
RightHand  -1.66861 4.18916 -20.3753
LeftUpLeg  -4.99427 15.5668 -2.70942
LeftLeg  10.0278 -1.11242 -4.18437
LeftFoot  -6.49618 0.466883 -10.1036
LeftToes  1.06246e-005 4.65856e-005 -8.18501e-006
